<mxfile host="Electron" modified="2025-03-11T12:49:28.243Z" agent="Mozilla/5.0 (X11; Linux x86_64) AppleWebKit/537.36 (KHTML, like Gecko) draw.io/24.5.3 Chrome/124.0.6367.207 Electron/30.0.6 Safari/537.36" etag="fQiyes6UQExJ3fr99A3q" version="24.5.3" type="device" pages="4">
  <diagram id="fdyE7Bon9ZJWYV4omJpd" name="Entities">
    <mxGraphModel dx="1680" dy="700" grid="1" gridSize="10" guides="1" tooltips="1" connect="1" arrows="1" fold="1" page="1" pageScale="1" pageWidth="1169" pageHeight="827" math="0" shadow="0">
      <root>
        <mxCell id="0" />
        <mxCell id="1" parent="0" />
        <mxCell id="eA9G6KjPmTp-fEkUW4yD-7" style="rounded=0;orthogonalLoop=1;jettySize=auto;html=1;strokeColor=default;align=center;verticalAlign=middle;fontFamily=Helvetica;fontSize=11;fontColor=default;labelBackgroundColor=default;endArrow=none;endFill=0;" parent="1" source="eA9G6KjPmTp-fEkUW4yD-1" target="eA9G6KjPmTp-fEkUW4yD-6" edge="1">
          <mxGeometry relative="1" as="geometry" />
        </mxCell>
        <mxCell id="eA9G6KjPmTp-fEkUW4yD-15" value="1" style="edgeLabel;html=1;align=center;verticalAlign=middle;resizable=0;points=[];fontFamily=Helvetica;fontSize=11;fontColor=default;labelBackgroundColor=default;" parent="eA9G6KjPmTp-fEkUW4yD-7" vertex="1" connectable="0">
          <mxGeometry x="-0.54" y="-1" relative="1" as="geometry">
            <mxPoint as="offset" />
          </mxGeometry>
        </mxCell>
        <mxCell id="eA9G6KjPmTp-fEkUW4yD-1" value="Device" style="whiteSpace=wrap;html=1;align=center;fontFamily=Helvetica;fontSize=11;fontColor=default;labelBackgroundColor=default;" parent="1" vertex="1">
          <mxGeometry x="80" y="190" width="100" height="40" as="geometry" />
        </mxCell>
        <mxCell id="eA9G6KjPmTp-fEkUW4yD-10" style="edgeStyle=none;rounded=0;orthogonalLoop=1;jettySize=auto;html=1;strokeColor=default;align=center;verticalAlign=middle;fontFamily=Helvetica;fontSize=11;fontColor=default;labelBackgroundColor=default;endArrow=none;endFill=0;" parent="1" source="eA9G6KjPmTp-fEkUW4yD-2" target="eA9G6KjPmTp-fEkUW4yD-9" edge="1">
          <mxGeometry relative="1" as="geometry" />
        </mxCell>
        <mxCell id="eA9G6KjPmTp-fEkUW4yD-13" value="1" style="edgeLabel;html=1;align=center;verticalAlign=middle;resizable=0;points=[];fontFamily=Helvetica;fontSize=11;fontColor=default;labelBackgroundColor=default;" parent="eA9G6KjPmTp-fEkUW4yD-10" vertex="1" connectable="0">
          <mxGeometry x="-0.52" y="-1" relative="1" as="geometry">
            <mxPoint as="offset" />
          </mxGeometry>
        </mxCell>
        <mxCell id="eA9G6KjPmTp-fEkUW4yD-2" value="Sensor" style="whiteSpace=wrap;html=1;align=center;fontFamily=Helvetica;fontSize=11;fontColor=default;labelBackgroundColor=default;" parent="1" vertex="1">
          <mxGeometry x="410" y="190" width="100" height="40" as="geometry" />
        </mxCell>
        <mxCell id="eA9G6KjPmTp-fEkUW4yD-20" style="edgeStyle=none;rounded=0;orthogonalLoop=1;jettySize=auto;html=1;strokeColor=default;align=center;verticalAlign=middle;fontFamily=Helvetica;fontSize=11;fontColor=default;labelBackgroundColor=default;endArrow=none;endFill=0;" parent="1" source="eA9G6KjPmTp-fEkUW4yD-4" target="eA9G6KjPmTp-fEkUW4yD-19" edge="1">
          <mxGeometry relative="1" as="geometry" />
        </mxCell>
        <mxCell id="eA9G6KjPmTp-fEkUW4yD-24" value="N" style="edgeLabel;html=1;align=center;verticalAlign=middle;resizable=0;points=[];fontFamily=Helvetica;fontSize=11;fontColor=default;labelBackgroundColor=default;" parent="eA9G6KjPmTp-fEkUW4yD-20" vertex="1" connectable="0">
          <mxGeometry x="-0.6194" y="-1" relative="1" as="geometry">
            <mxPoint y="-1" as="offset" />
          </mxGeometry>
        </mxCell>
        <mxCell id="eA9G6KjPmTp-fEkUW4yD-4" value="Measurement" style="whiteSpace=wrap;html=1;align=center;fontFamily=Helvetica;fontSize=11;fontColor=default;labelBackgroundColor=default;" parent="1" vertex="1">
          <mxGeometry x="730" y="190" width="100" height="40" as="geometry" />
        </mxCell>
        <mxCell id="vpOfPQBiSOP-EBAgESCu-8" style="rounded=0;orthogonalLoop=1;jettySize=auto;html=1;endArrow=none;endFill=0;" edge="1" parent="1" source="eA9G6KjPmTp-fEkUW4yD-5" target="vpOfPQBiSOP-EBAgESCu-5">
          <mxGeometry relative="1" as="geometry">
            <Array as="points">
              <mxPoint x="960" y="30" />
            </Array>
          </mxGeometry>
        </mxCell>
        <mxCell id="vpOfPQBiSOP-EBAgESCu-10" value="1" style="edgeLabel;html=1;align=center;verticalAlign=middle;resizable=0;points=[];" vertex="1" connectable="0" parent="vpOfPQBiSOP-EBAgESCu-8">
          <mxGeometry x="-0.7167" relative="1" as="geometry">
            <mxPoint as="offset" />
          </mxGeometry>
        </mxCell>
        <mxCell id="vpOfPQBiSOP-EBAgESCu-13" value="0..1" style="edgeLabel;html=1;align=center;verticalAlign=middle;resizable=0;points=[];" vertex="1" connectable="0" parent="vpOfPQBiSOP-EBAgESCu-8">
          <mxGeometry x="0.775" relative="1" as="geometry">
            <mxPoint as="offset" />
          </mxGeometry>
        </mxCell>
        <mxCell id="eA9G6KjPmTp-fEkUW4yD-5" value="Datastream" style="whiteSpace=wrap;html=1;align=center;fontFamily=Helvetica;fontSize=11;fontColor=default;labelBackgroundColor=default;" parent="1" vertex="1">
          <mxGeometry x="730" y="10" width="100" height="40" as="geometry" />
        </mxCell>
        <mxCell id="eA9G6KjPmTp-fEkUW4yD-8" style="edgeStyle=none;rounded=0;orthogonalLoop=1;jettySize=auto;html=1;strokeColor=default;align=center;verticalAlign=middle;fontFamily=Helvetica;fontSize=11;fontColor=default;labelBackgroundColor=default;endArrow=none;endFill=0;fontStyle=0" parent="1" source="eA9G6KjPmTp-fEkUW4yD-6" target="eA9G6KjPmTp-fEkUW4yD-2" edge="1">
          <mxGeometry relative="1" as="geometry" />
        </mxCell>
        <mxCell id="eA9G6KjPmTp-fEkUW4yD-14" value="N" style="edgeLabel;html=1;align=center;verticalAlign=middle;resizable=0;points=[];fontFamily=Helvetica;fontSize=11;fontColor=default;labelBackgroundColor=default;" parent="eA9G6KjPmTp-fEkUW4yD-8" vertex="1" connectable="0">
          <mxGeometry x="0.5314" relative="1" as="geometry">
            <mxPoint as="offset" />
          </mxGeometry>
        </mxCell>
        <mxCell id="eA9G6KjPmTp-fEkUW4yD-6" value="Is made of&amp;nbsp;" style="shape=rhombus;perimeter=rhombusPerimeter;whiteSpace=wrap;html=1;align=center;fontFamily=Helvetica;fontSize=11;fontColor=default;labelBackgroundColor=default;" parent="1" vertex="1">
          <mxGeometry x="240" y="180" width="120" height="60" as="geometry" />
        </mxCell>
        <mxCell id="eA9G6KjPmTp-fEkUW4yD-11" style="edgeStyle=none;rounded=0;orthogonalLoop=1;jettySize=auto;html=1;strokeColor=default;align=center;verticalAlign=middle;fontFamily=Helvetica;fontSize=11;fontColor=default;labelBackgroundColor=default;endArrow=none;endFill=0;" parent="1" source="eA9G6KjPmTp-fEkUW4yD-9" target="eA9G6KjPmTp-fEkUW4yD-4" edge="1">
          <mxGeometry relative="1" as="geometry" />
        </mxCell>
        <mxCell id="eA9G6KjPmTp-fEkUW4yD-12" value="N" style="edgeLabel;html=1;align=center;verticalAlign=middle;resizable=0;points=[];fontFamily=Helvetica;fontSize=11;fontColor=default;labelBackgroundColor=default;" parent="eA9G6KjPmTp-fEkUW4yD-11" vertex="1" connectable="0">
          <mxGeometry x="0.4" relative="1" as="geometry">
            <mxPoint x="5" as="offset" />
          </mxGeometry>
        </mxCell>
        <mxCell id="eA9G6KjPmTp-fEkUW4yD-9" value="Produces" style="shape=rhombus;perimeter=rhombusPerimeter;whiteSpace=wrap;html=1;align=center;fontFamily=Helvetica;fontSize=11;fontColor=default;labelBackgroundColor=default;" parent="1" vertex="1">
          <mxGeometry x="560" y="180" width="120" height="60" as="geometry" />
        </mxCell>
        <mxCell id="eA9G6KjPmTp-fEkUW4yD-21" style="edgeStyle=none;rounded=0;orthogonalLoop=1;jettySize=auto;html=1;strokeColor=default;align=center;verticalAlign=middle;fontFamily=Helvetica;fontSize=11;fontColor=default;labelBackgroundColor=default;endArrow=none;endFill=0;" parent="1" source="eA9G6KjPmTp-fEkUW4yD-19" target="eA9G6KjPmTp-fEkUW4yD-5" edge="1">
          <mxGeometry relative="1" as="geometry">
            <Array as="points" />
          </mxGeometry>
        </mxCell>
        <mxCell id="eA9G6KjPmTp-fEkUW4yD-25" value="1" style="edgeLabel;html=1;align=center;verticalAlign=middle;resizable=0;points=[];fontFamily=Helvetica;fontSize=11;fontColor=default;labelBackgroundColor=default;" parent="eA9G6KjPmTp-fEkUW4yD-21" vertex="1" connectable="0">
          <mxGeometry x="0.883" y="-1" relative="1" as="geometry">
            <mxPoint x="-7" y="-1" as="offset" />
          </mxGeometry>
        </mxCell>
        <mxCell id="eA9G6KjPmTp-fEkUW4yD-19" value="Associated to a" style="shape=rhombus;perimeter=rhombusPerimeter;whiteSpace=wrap;html=1;align=center;fontFamily=Helvetica;fontSize=11;fontColor=default;labelBackgroundColor=none;" parent="1" vertex="1">
          <mxGeometry x="720" y="80" width="120" height="60" as="geometry" />
        </mxCell>
        <mxCell id="eA9G6KjPmTp-fEkUW4yD-26" style="edgeStyle=none;rounded=0;orthogonalLoop=1;jettySize=auto;html=1;strokeColor=default;align=center;verticalAlign=middle;fontFamily=Helvetica;fontSize=11;fontColor=default;labelBackgroundColor=default;endArrow=none;endFill=0;" parent="1" source="eA9G6KjPmTp-fEkUW4yD-4" target="eA9G6KjPmTp-fEkUW4yD-31" edge="1">
          <mxGeometry relative="1" as="geometry">
            <mxPoint x="830" y="310" as="sourcePoint" />
          </mxGeometry>
        </mxCell>
        <mxCell id="eA9G6KjPmTp-fEkUW4yD-27" value="N" style="edgeLabel;html=1;align=center;verticalAlign=middle;resizable=0;points=[];fontFamily=Helvetica;fontSize=11;fontColor=default;labelBackgroundColor=default;" parent="eA9G6KjPmTp-fEkUW4yD-26" vertex="1" connectable="0">
          <mxGeometry x="-0.6194" y="-1" relative="1" as="geometry">
            <mxPoint y="-1" as="offset" />
          </mxGeometry>
        </mxCell>
        <mxCell id="eA9G6KjPmTp-fEkUW4yD-28" value="FeatureOfInterest" style="whiteSpace=wrap;html=1;align=center;fontFamily=Helvetica;fontSize=11;fontColor=default;labelBackgroundColor=default;" parent="1" vertex="1">
          <mxGeometry x="910" y="295.24" width="100" height="40" as="geometry" />
        </mxCell>
        <mxCell id="eA9G6KjPmTp-fEkUW4yD-29" style="edgeStyle=none;rounded=0;orthogonalLoop=1;jettySize=auto;html=1;strokeColor=default;align=center;verticalAlign=middle;fontFamily=Helvetica;fontSize=11;fontColor=default;labelBackgroundColor=default;endArrow=none;endFill=0;" parent="1" source="eA9G6KjPmTp-fEkUW4yD-31" target="eA9G6KjPmTp-fEkUW4yD-28" edge="1">
          <mxGeometry relative="1" as="geometry">
            <Array as="points" />
          </mxGeometry>
        </mxCell>
        <mxCell id="eA9G6KjPmTp-fEkUW4yD-30" value="0..1" style="edgeLabel;html=1;align=center;verticalAlign=middle;resizable=0;points=[];fontFamily=Helvetica;fontSize=11;fontColor=default;labelBackgroundColor=default;" parent="eA9G6KjPmTp-fEkUW4yD-29" vertex="1" connectable="0">
          <mxGeometry x="0.883" y="-1" relative="1" as="geometry">
            <mxPoint x="-17" y="-11" as="offset" />
          </mxGeometry>
        </mxCell>
        <mxCell id="eA9G6KjPmTp-fEkUW4yD-31" value="Is an observation&amp;nbsp;&lt;div&gt;of a&lt;/div&gt;" style="shape=rhombus;perimeter=rhombusPerimeter;whiteSpace=wrap;html=1;align=center;fontFamily=Helvetica;fontSize=11;fontColor=default;labelBackgroundColor=none;fillColor=default;" parent="1" vertex="1">
          <mxGeometry x="720" y="285.24" width="120" height="60" as="geometry" />
        </mxCell>
        <mxCell id="vpOfPQBiSOP-EBAgESCu-3" style="edgeStyle=none;rounded=0;orthogonalLoop=1;jettySize=auto;html=1;strokeColor=default;align=center;verticalAlign=middle;fontFamily=Helvetica;fontSize=11;fontColor=default;labelBackgroundColor=default;endArrow=none;endFill=0;" edge="1" parent="1" source="vpOfPQBiSOP-EBAgESCu-5" target="vpOfPQBiSOP-EBAgESCu-6">
          <mxGeometry relative="1" as="geometry" />
        </mxCell>
        <mxCell id="vpOfPQBiSOP-EBAgESCu-4" style="edgeStyle=none;rounded=0;orthogonalLoop=1;jettySize=auto;html=1;strokeColor=default;align=center;verticalAlign=middle;fontFamily=Helvetica;fontSize=11;fontColor=default;labelBackgroundColor=default;endArrow=none;endFill=0;" edge="1" parent="1" source="vpOfPQBiSOP-EBAgESCu-5" target="vpOfPQBiSOP-EBAgESCu-7">
          <mxGeometry relative="1" as="geometry" />
        </mxCell>
        <mxCell id="vpOfPQBiSOP-EBAgESCu-9" style="rounded=0;orthogonalLoop=1;jettySize=auto;html=1;endArrow=none;endFill=0;" edge="1" parent="1" source="vpOfPQBiSOP-EBAgESCu-5" target="eA9G6KjPmTp-fEkUW4yD-28">
          <mxGeometry relative="1" as="geometry" />
        </mxCell>
        <mxCell id="vpOfPQBiSOP-EBAgESCu-11" value="0..1" style="edgeLabel;html=1;align=center;verticalAlign=middle;resizable=0;points=[];" vertex="1" connectable="0" parent="vpOfPQBiSOP-EBAgESCu-9">
          <mxGeometry x="0.6933" relative="1" as="geometry">
            <mxPoint as="offset" />
          </mxGeometry>
        </mxCell>
        <mxCell id="vpOfPQBiSOP-EBAgESCu-12" value="0..*" style="edgeLabel;html=1;align=center;verticalAlign=middle;resizable=0;points=[];" vertex="1" connectable="0" parent="vpOfPQBiSOP-EBAgESCu-9">
          <mxGeometry x="-0.7667" relative="1" as="geometry">
            <mxPoint as="offset" />
          </mxGeometry>
        </mxCell>
        <mxCell id="vpOfPQBiSOP-EBAgESCu-5" value="FoIDatastreamBinding" style="shape=associativeEntity;whiteSpace=wrap;html=1;align=center;fontFamily=Helvetica;fontSize=11;fontColor=default;labelBackgroundColor=default;" vertex="1" parent="1">
          <mxGeometry x="890" y="180" width="140" height="60" as="geometry" />
        </mxCell>
        <mxCell id="vpOfPQBiSOP-EBAgESCu-6" value="BoundAt" style="ellipse;whiteSpace=wrap;html=1;align=center;fontFamily=Helvetica;fontSize=11;fontColor=default;labelBackgroundColor=default;" vertex="1" parent="1">
          <mxGeometry x="1050" y="165" width="100" height="40" as="geometry" />
        </mxCell>
        <mxCell id="vpOfPQBiSOP-EBAgESCu-7" value="UnboundAt" style="ellipse;whiteSpace=wrap;html=1;align=center;fontFamily=Helvetica;fontSize=11;fontColor=default;labelBackgroundColor=default;" vertex="1" parent="1">
          <mxGeometry x="1050" y="215" width="100" height="40" as="geometry" />
        </mxCell>
        <mxCell id="0A-EdyVpFoUyQ_ps4YC1-2" style="edgeStyle=none;rounded=0;orthogonalLoop=1;jettySize=auto;html=1;strokeColor=default;align=center;verticalAlign=middle;fontFamily=Helvetica;fontSize=11;fontColor=default;labelBackgroundColor=default;endArrow=none;endFill=0;" edge="1" parent="1" source="vpOfPQBiSOP-EBAgESCu-14" target="0A-EdyVpFoUyQ_ps4YC1-7">
          <mxGeometry relative="1" as="geometry">
            <mxPoint x="900" y="480" as="targetPoint" />
          </mxGeometry>
        </mxCell>
        <mxCell id="0A-EdyVpFoUyQ_ps4YC1-6" value="0..*" style="edgeLabel;html=1;align=center;verticalAlign=middle;resizable=0;points=[];fontFamily=Helvetica;fontSize=11;fontColor=default;labelBackgroundColor=default;" vertex="1" connectable="0" parent="0A-EdyVpFoUyQ_ps4YC1-2">
          <mxGeometry x="-0.6667" y="-1" relative="1" as="geometry">
            <mxPoint y="-1" as="offset" />
          </mxGeometry>
        </mxCell>
        <mxCell id="vpOfPQBiSOP-EBAgESCu-14" value="Project" style="whiteSpace=wrap;html=1;align=center;fontFamily=Helvetica;fontSize=11;fontColor=default;labelBackgroundColor=default;" vertex="1" parent="1">
          <mxGeometry x="730" y="460" width="100" height="40" as="geometry" />
        </mxCell>
        <mxCell id="0A-EdyVpFoUyQ_ps4YC1-3" style="edgeStyle=none;rounded=0;orthogonalLoop=1;jettySize=auto;html=1;strokeColor=default;align=center;verticalAlign=middle;fontFamily=Helvetica;fontSize=11;fontColor=default;labelBackgroundColor=default;endArrow=none;endFill=0;" edge="1" parent="1" source="0A-EdyVpFoUyQ_ps4YC1-7" target="eA9G6KjPmTp-fEkUW4yD-28">
          <mxGeometry relative="1" as="geometry">
            <mxPoint x="960" y="400" as="sourcePoint" />
          </mxGeometry>
        </mxCell>
        <mxCell id="0A-EdyVpFoUyQ_ps4YC1-5" value="0..*" style="edgeLabel;html=1;align=center;verticalAlign=middle;resizable=0;points=[];fontFamily=Helvetica;fontSize=11;fontColor=default;labelBackgroundColor=default;" vertex="1" connectable="0" parent="0A-EdyVpFoUyQ_ps4YC1-3">
          <mxGeometry x="0.6883" y="-1" relative="1" as="geometry">
            <mxPoint as="offset" />
          </mxGeometry>
        </mxCell>
        <mxCell id="0A-EdyVpFoUyQ_ps4YC1-9" style="edgeStyle=none;rounded=0;orthogonalLoop=1;jettySize=auto;html=1;strokeColor=default;align=center;verticalAlign=middle;fontFamily=Helvetica;fontSize=11;fontColor=default;labelBackgroundColor=default;endArrow=none;endFill=0;" edge="1" parent="1" source="0A-EdyVpFoUyQ_ps4YC1-7" target="0A-EdyVpFoUyQ_ps4YC1-8">
          <mxGeometry relative="1" as="geometry" />
        </mxCell>
        <mxCell id="0A-EdyVpFoUyQ_ps4YC1-7" value="ProjectFeaturesOfInterest" style="shape=associativeEntity;whiteSpace=wrap;html=1;align=center;fontFamily=Helvetica;fontSize=11;fontColor=default;labelBackgroundColor=default;" vertex="1" parent="1">
          <mxGeometry x="890" y="450" width="140" height="60" as="geometry" />
        </mxCell>
        <mxCell id="0A-EdyVpFoUyQ_ps4YC1-8" value="Interested Observation types" style="ellipse;whiteSpace=wrap;html=1;align=center;fontFamily=Helvetica;fontSize=11;fontColor=default;labelBackgroundColor=none;" vertex="1" parent="1">
          <mxGeometry x="1050" y="460" width="100" height="40" as="geometry" />
        </mxCell>
      </root>
    </mxGraphModel>
  </diagram>
  <diagram id="fMGNeipkLIkTHCkSgyKK" name="Services">
    <mxGraphModel dx="1960" dy="817" grid="1" gridSize="10" guides="1" tooltips="1" connect="1" arrows="1" fold="1" page="1" pageScale="1.25" pageWidth="1169" pageHeight="827" math="0" shadow="0">
      <root>
        <mxCell id="0" />
        <mxCell id="1" parent="0" />
        <object placeholders="1" c4Name="Devices" c4Type="Component" c4Technology="GoLang" c4Description="Responsible for managing devices and their sensors" label="&lt;font style=&quot;font-size: 16px&quot;&gt;&lt;b&gt;%c4Name%&lt;/b&gt;&lt;/font&gt;&lt;div&gt;[%c4Type%: %c4Technology%]&lt;/div&gt;&lt;br&gt;&lt;div&gt;&lt;font style=&quot;font-size: 11px&quot;&gt;%c4Description%&lt;/font&gt;&lt;/div&gt;" id="EjK_YpWmMZ_rpSEXWELv-1">
          <mxCell style="rounded=1;whiteSpace=wrap;html=1;labelBackgroundColor=none;fillColor=#63BEF2;fontColor=#ffffff;align=center;arcSize=6;strokeColor=#2086C9;metaEdit=1;resizable=0;points=[[0.25,0,0],[0.5,0,0],[0.75,0,0],[1,0.25,0],[1,0.5,0],[1,0.75,0],[0.75,1,0],[0.5,1,0],[0.25,1,0],[0,0.75,0],[0,0.5,0],[0,0.25,0]];" vertex="1" parent="1">
            <mxGeometry x="525" y="230" width="240" height="120" as="geometry" />
          </mxCell>
        </object>
        <mxCell id="ywTnzIPJs6wiFW_c2x1Z-4" style="edgeStyle=none;rounded=0;orthogonalLoop=1;jettySize=auto;html=1;strokeColor=default;align=center;verticalAlign=middle;fontFamily=Helvetica;fontSize=11;fontColor=default;labelBackgroundColor=default;endArrow=classic;endFill=1;" edge="1" parent="1" source="EjK_YpWmMZ_rpSEXWELv-2" target="EjK_YpWmMZ_rpSEXWELv-1">
          <mxGeometry relative="1" as="geometry" />
        </mxCell>
        <mxCell id="ywTnzIPJs6wiFW_c2x1Z-5" style="edgeStyle=none;rounded=0;orthogonalLoop=1;jettySize=auto;html=1;strokeColor=default;align=center;verticalAlign=middle;fontFamily=Helvetica;fontSize=11;fontColor=default;labelBackgroundColor=default;endArrow=classic;endFill=1;" edge="1" parent="1" source="EjK_YpWmMZ_rpSEXWELv-2" target="RFIR7j6ln_LFoZsdxVrI-1">
          <mxGeometry relative="1" as="geometry" />
        </mxCell>
        <object placeholders="1" c4Name="Measurements" c4Type="Component" c4Technology="GoLang" c4Description="Receives final PipelineMessage and converts it to measurements and datastreams" label="&lt;font style=&quot;font-size: 16px&quot;&gt;&lt;b&gt;%c4Name%&lt;/b&gt;&lt;/font&gt;&lt;div&gt;[%c4Type%: %c4Technology%]&lt;/div&gt;&lt;br&gt;&lt;div&gt;&lt;font style=&quot;font-size: 11px&quot;&gt;%c4Description%&lt;/font&gt;&lt;/div&gt;" id="EjK_YpWmMZ_rpSEXWELv-2">
          <mxCell style="rounded=1;whiteSpace=wrap;html=1;labelBackgroundColor=none;fillColor=#63BEF2;fontColor=#ffffff;align=center;arcSize=6;strokeColor=#2086C9;metaEdit=1;resizable=0;points=[[0.25,0,0],[0.5,0,0],[0.75,0,0],[1,0.25,0],[1,0.5,0],[1,0.75,0],[0.75,1,0],[0.5,1,0],[0.25,1,0],[0,0.75,0],[0,0.5,0],[0,0.25,0]];" vertex="1" parent="1">
            <mxGeometry x="690" y="480" width="240" height="120" as="geometry" />
          </mxCell>
        </object>
        <mxCell id="ywTnzIPJs6wiFW_c2x1Z-2" style="edgeStyle=none;rounded=0;orthogonalLoop=1;jettySize=auto;html=1;strokeColor=default;align=center;verticalAlign=middle;fontFamily=Helvetica;fontSize=11;fontColor=default;labelBackgroundColor=default;endArrow=classic;endFill=1;" edge="1" parent="1" source="EjK_YpWmMZ_rpSEXWELv-3" target="EjK_YpWmMZ_rpSEXWELv-2">
          <mxGeometry relative="1" as="geometry" />
        </mxCell>
        <object placeholders="1" c4Name="Processing" c4Type="Component" c4Technology="GoLang" c4Description="Responsible for receiving IngressDTOs processing, creating work and sending to workers based on pipelines" label="&lt;font style=&quot;font-size: 16px&quot;&gt;&lt;b&gt;%c4Name%&lt;/b&gt;&lt;/font&gt;&lt;div&gt;[%c4Type%: %c4Technology%]&lt;/div&gt;&lt;br&gt;&lt;div&gt;&lt;font style=&quot;font-size: 11px&quot;&gt;%c4Description%&lt;/font&gt;&lt;/div&gt;" id="EjK_YpWmMZ_rpSEXWELv-3">
          <mxCell style="rounded=1;whiteSpace=wrap;html=1;labelBackgroundColor=none;fillColor=#63BEF2;fontColor=#ffffff;align=center;arcSize=6;strokeColor=#2086C9;metaEdit=1;resizable=0;points=[[0.25,0,0],[0.5,0,0],[0.75,0,0],[1,0.25,0],[1,0.5,0],[1,0.75,0],[0.75,1,0],[0.5,1,0],[0.25,1,0],[0,0.75,0],[0,0.5,0],[0,0.25,0]];" vertex="1" parent="1">
            <mxGeometry x="190" y="480" width="240" height="120" as="geometry" />
          </mxCell>
        </object>
        <object placeholders="1" c4Name="Projects" c4Type="Component" c4Technology="GoLang" c4Description="Responsible for managing projects and their relation to FeaturesOfInterest" label="&lt;font style=&quot;font-size: 16px&quot;&gt;&lt;b&gt;%c4Name%&lt;/b&gt;&lt;/font&gt;&lt;div&gt;[%c4Type%: %c4Technology%]&lt;/div&gt;&lt;br&gt;&lt;div&gt;&lt;font style=&quot;font-size: 11px&quot;&gt;%c4Description%&lt;/font&gt;&lt;/div&gt;" id="RFIR7j6ln_LFoZsdxVrI-1">
          <mxCell style="rounded=1;whiteSpace=wrap;html=1;labelBackgroundColor=none;fillColor=#63BEF2;fontColor=#ffffff;align=center;arcSize=6;strokeColor=#2086C9;metaEdit=1;resizable=0;points=[[0.25,0,0],[0.5,0,0],[0.75,0,0],[1,0.25,0],[1,0.5,0],[1,0.75,0],[0.75,1,0],[0.5,1,0],[0.25,1,0],[0,0.75,0],[0,0.5,0],[0,0.25,0]];" vertex="1" parent="1">
            <mxGeometry x="855" y="230" width="240" height="120" as="geometry" />
          </mxCell>
        </object>
      </root>
    </mxGraphModel>
  </diagram>
  <diagram name="Measurements Table Optimization" id="rAXUZqpjFw0ocZFbPhKP">
    <mxGraphModel dx="1680" dy="700" grid="1" gridSize="10" guides="1" tooltips="1" connect="1" arrows="1" fold="1" page="1" pageScale="1" pageWidth="1169" pageHeight="827" math="0" shadow="0">
      <root>
        <mxCell id="0" />
        <mxCell id="1" parent="0" />
        <mxCell id="d8uW3kwRBsjR4Sv8d3cF-21" style="rounded=0;orthogonalLoop=1;jettySize=auto;html=1;" parent="1" source="d8uW3kwRBsjR4Sv8d3cF-1" target="d8uW3kwRBsjR4Sv8d3cF-20" edge="1">
          <mxGeometry relative="1" as="geometry" />
        </mxCell>
        <mxCell id="d8uW3kwRBsjR4Sv8d3cF-25" style="edgeStyle=none;rounded=0;orthogonalLoop=1;jettySize=auto;html=1;strokeColor=default;align=center;verticalAlign=middle;fontFamily=Helvetica;fontSize=11;fontColor=default;labelBackgroundColor=default;endArrow=classic;" parent="1" source="d8uW3kwRBsjR4Sv8d3cF-1" target="d8uW3kwRBsjR4Sv8d3cF-22" edge="1">
          <mxGeometry relative="1" as="geometry" />
        </mxCell>
        <mxCell id="d8uW3kwRBsjR4Sv8d3cF-1" value="Measurements" style="shape=table;startSize=30;container=1;collapsible=1;childLayout=tableLayout;fixedRows=1;rowLines=0;fontStyle=1;align=center;resizeLast=1;html=1;" parent="1" vertex="1">
          <mxGeometry x="1300" y="170" width="300" height="180" as="geometry" />
        </mxCell>
        <mxCell id="d8uW3kwRBsjR4Sv8d3cF-5" value="" style="shape=tableRow;horizontal=0;startSize=0;swimlaneHead=0;swimlaneBody=0;fillColor=none;collapsible=0;dropTarget=0;points=[[0,0.5],[1,0.5]];portConstraint=eastwest;top=0;left=0;right=0;bottom=0;" parent="d8uW3kwRBsjR4Sv8d3cF-1" vertex="1">
          <mxGeometry y="30" width="300" height="30" as="geometry" />
        </mxCell>
        <mxCell id="d8uW3kwRBsjR4Sv8d3cF-6" value="" style="shape=partialRectangle;connectable=0;fillColor=none;top=0;left=0;bottom=0;right=0;editable=1;overflow=hidden;whiteSpace=wrap;html=1;" parent="d8uW3kwRBsjR4Sv8d3cF-5" vertex="1">
          <mxGeometry width="30" height="30" as="geometry">
            <mxRectangle width="30" height="30" as="alternateBounds" />
          </mxGeometry>
        </mxCell>
        <mxCell id="d8uW3kwRBsjR4Sv8d3cF-7" value="MeasurementID" style="shape=partialRectangle;connectable=0;fillColor=none;top=0;left=0;bottom=0;right=0;align=left;spacingLeft=6;overflow=hidden;whiteSpace=wrap;html=1;" parent="d8uW3kwRBsjR4Sv8d3cF-5" vertex="1">
          <mxGeometry x="30" width="270" height="30" as="geometry">
            <mxRectangle width="270" height="30" as="alternateBounds" />
          </mxGeometry>
        </mxCell>
        <mxCell id="d8uW3kwRBsjR4Sv8d3cF-8" value="" style="shape=tableRow;horizontal=0;startSize=0;swimlaneHead=0;swimlaneBody=0;fillColor=none;collapsible=0;dropTarget=0;points=[[0,0.5],[1,0.5]];portConstraint=eastwest;top=0;left=0;right=0;bottom=0;" parent="d8uW3kwRBsjR4Sv8d3cF-1" vertex="1">
          <mxGeometry y="60" width="300" height="30" as="geometry" />
        </mxCell>
        <mxCell id="d8uW3kwRBsjR4Sv8d3cF-9" value="" style="shape=partialRectangle;connectable=0;fillColor=none;top=0;left=0;bottom=0;right=0;editable=1;overflow=hidden;whiteSpace=wrap;html=1;" parent="d8uW3kwRBsjR4Sv8d3cF-8" vertex="1">
          <mxGeometry width="30" height="30" as="geometry">
            <mxRectangle width="30" height="30" as="alternateBounds" />
          </mxGeometry>
        </mxCell>
        <mxCell id="d8uW3kwRBsjR4Sv8d3cF-10" value="Timestamp" style="shape=partialRectangle;connectable=0;fillColor=none;top=0;left=0;bottom=0;right=0;align=left;spacingLeft=6;overflow=hidden;whiteSpace=wrap;html=1;" parent="d8uW3kwRBsjR4Sv8d3cF-8" vertex="1">
          <mxGeometry x="30" width="270" height="30" as="geometry">
            <mxRectangle width="270" height="30" as="alternateBounds" />
          </mxGeometry>
        </mxCell>
        <mxCell id="d8uW3kwRBsjR4Sv8d3cF-11" value="" style="shape=tableRow;horizontal=0;startSize=0;swimlaneHead=0;swimlaneBody=0;fillColor=none;collapsible=0;dropTarget=0;points=[[0,0.5],[1,0.5]];portConstraint=eastwest;top=0;left=0;right=0;bottom=0;" parent="d8uW3kwRBsjR4Sv8d3cF-1" vertex="1">
          <mxGeometry y="90" width="300" height="30" as="geometry" />
        </mxCell>
        <mxCell id="d8uW3kwRBsjR4Sv8d3cF-12" value="" style="shape=partialRectangle;connectable=0;fillColor=none;top=0;left=0;bottom=0;right=0;editable=1;overflow=hidden;whiteSpace=wrap;html=1;" parent="d8uW3kwRBsjR4Sv8d3cF-11" vertex="1">
          <mxGeometry width="30" height="30" as="geometry">
            <mxRectangle width="30" height="30" as="alternateBounds" />
          </mxGeometry>
        </mxCell>
        <mxCell id="d8uW3kwRBsjR4Sv8d3cF-13" value="TenantID" style="shape=partialRectangle;connectable=0;fillColor=none;top=0;left=0;bottom=0;right=0;align=left;spacingLeft=6;overflow=hidden;whiteSpace=wrap;html=1;" parent="d8uW3kwRBsjR4Sv8d3cF-11" vertex="1">
          <mxGeometry x="30" width="270" height="30" as="geometry">
            <mxRectangle width="270" height="30" as="alternateBounds" />
          </mxGeometry>
        </mxCell>
        <mxCell id="d8uW3kwRBsjR4Sv8d3cF-14" value="" style="shape=tableRow;horizontal=0;startSize=0;swimlaneHead=0;swimlaneBody=0;fillColor=none;collapsible=0;dropTarget=0;points=[[0,0.5],[1,0.5]];portConstraint=eastwest;top=0;left=0;right=0;bottom=0;" parent="d8uW3kwRBsjR4Sv8d3cF-1" vertex="1">
          <mxGeometry y="120" width="300" height="30" as="geometry" />
        </mxCell>
        <mxCell id="d8uW3kwRBsjR4Sv8d3cF-15" value="" style="shape=partialRectangle;connectable=0;fillColor=none;top=0;left=0;bottom=0;right=0;editable=1;overflow=hidden;whiteSpace=wrap;html=1;" parent="d8uW3kwRBsjR4Sv8d3cF-14" vertex="1">
          <mxGeometry width="30" height="30" as="geometry">
            <mxRectangle width="30" height="30" as="alternateBounds" />
          </mxGeometry>
        </mxCell>
        <mxCell id="d8uW3kwRBsjR4Sv8d3cF-16" value="DatastreamID" style="shape=partialRectangle;connectable=0;fillColor=none;top=0;left=0;bottom=0;right=0;align=left;spacingLeft=6;overflow=hidden;whiteSpace=wrap;html=1;" parent="d8uW3kwRBsjR4Sv8d3cF-14" vertex="1">
          <mxGeometry x="30" width="270" height="30" as="geometry">
            <mxRectangle width="270" height="30" as="alternateBounds" />
          </mxGeometry>
        </mxCell>
        <mxCell id="d8uW3kwRBsjR4Sv8d3cF-17" value="" style="shape=tableRow;horizontal=0;startSize=0;swimlaneHead=0;swimlaneBody=0;fillColor=none;collapsible=0;dropTarget=0;points=[[0,0.5],[1,0.5]];portConstraint=eastwest;top=0;left=0;right=0;bottom=0;" parent="d8uW3kwRBsjR4Sv8d3cF-1" vertex="1">
          <mxGeometry y="150" width="300" height="30" as="geometry" />
        </mxCell>
        <mxCell id="d8uW3kwRBsjR4Sv8d3cF-18" value="" style="shape=partialRectangle;connectable=0;fillColor=none;top=0;left=0;bottom=0;right=0;editable=1;overflow=hidden;whiteSpace=wrap;html=1;" parent="d8uW3kwRBsjR4Sv8d3cF-17" vertex="1">
          <mxGeometry width="30" height="30" as="geometry">
            <mxRectangle width="30" height="30" as="alternateBounds" />
          </mxGeometry>
        </mxCell>
        <mxCell id="d8uW3kwRBsjR4Sv8d3cF-19" value="FeatureOfInterestID" style="shape=partialRectangle;connectable=0;fillColor=none;top=0;left=0;bottom=0;right=0;align=left;spacingLeft=6;overflow=hidden;whiteSpace=wrap;html=1;" parent="d8uW3kwRBsjR4Sv8d3cF-17" vertex="1">
          <mxGeometry x="30" width="270" height="30" as="geometry">
            <mxRectangle width="270" height="30" as="alternateBounds" />
          </mxGeometry>
        </mxCell>
        <mxCell id="ADEAatp76KYXMYbJpZsr-3" style="rounded=0;orthogonalLoop=1;jettySize=auto;html=1;" edge="1" parent="1" source="d8uW3kwRBsjR4Sv8d3cF-20" target="ADEAatp76KYXMYbJpZsr-1">
          <mxGeometry relative="1" as="geometry" />
        </mxCell>
        <mxCell id="ADEAatp76KYXMYbJpZsr-5" style="edgeStyle=none;rounded=0;orthogonalLoop=1;jettySize=auto;html=1;strokeColor=default;align=center;verticalAlign=middle;fontFamily=Helvetica;fontSize=11;fontColor=default;labelBackgroundColor=default;endArrow=classic;" edge="1" parent="1" source="d8uW3kwRBsjR4Sv8d3cF-20" target="ADEAatp76KYXMYbJpZsr-2">
          <mxGeometry relative="1" as="geometry" />
        </mxCell>
        <mxCell id="d8uW3kwRBsjR4Sv8d3cF-20" value="Timestamp" style="whiteSpace=wrap;html=1;align=center;" parent="1" vertex="1">
          <mxGeometry x="1760" y="135" width="100" height="40" as="geometry" />
        </mxCell>
        <mxCell id="d8uW3kwRBsjR4Sv8d3cF-22" value="Timestamp" style="whiteSpace=wrap;html=1;align=center;" parent="1" vertex="1">
          <mxGeometry x="1760" y="335" width="100" height="40" as="geometry" />
        </mxCell>
        <mxCell id="d8uW3kwRBsjR4Sv8d3cF-42" style="edgeStyle=orthogonalEdgeStyle;rounded=0;orthogonalLoop=1;jettySize=auto;html=1;strokeColor=default;align=center;verticalAlign=middle;fontFamily=Helvetica;fontSize=11;fontColor=default;labelBackgroundColor=default;endArrow=none;endFill=0;exitX=0.5;exitY=1;exitDx=0;exitDy=0;" parent="1" source="d8uW3kwRBsjR4Sv8d3cF-35" target="d8uW3kwRBsjR4Sv8d3cF-40" edge="1">
          <mxGeometry relative="1" as="geometry" />
        </mxCell>
        <mxCell id="vOKstgV0_YbRhc0kYzh2-14" value="N" style="edgeLabel;html=1;align=center;verticalAlign=middle;resizable=0;points=[];fontFamily=Helvetica;fontSize=11;fontColor=default;labelBackgroundColor=default;" parent="d8uW3kwRBsjR4Sv8d3cF-42" vertex="1" connectable="0">
          <mxGeometry x="-0.1732" y="1" relative="1" as="geometry">
            <mxPoint as="offset" />
          </mxGeometry>
        </mxCell>
        <mxCell id="d8uW3kwRBsjR4Sv8d3cF-44" style="edgeStyle=orthogonalEdgeStyle;rounded=0;orthogonalLoop=1;jettySize=auto;html=1;exitX=0.5;exitY=0;exitDx=0;exitDy=0;entryX=0;entryY=0.5;entryDx=0;entryDy=0;strokeColor=default;align=center;verticalAlign=middle;fontFamily=Helvetica;fontSize=11;fontColor=default;labelBackgroundColor=default;endArrow=none;endFill=0;" parent="1" source="d8uW3kwRBsjR4Sv8d3cF-35" target="d8uW3kwRBsjR4Sv8d3cF-39" edge="1">
          <mxGeometry relative="1" as="geometry" />
        </mxCell>
        <mxCell id="vOKstgV0_YbRhc0kYzh2-2" style="edgeStyle=orthogonalEdgeStyle;rounded=0;orthogonalLoop=1;jettySize=auto;html=1;entryX=0;entryY=0.5;entryDx=0;entryDy=0;exitX=0.5;exitY=1;exitDx=0;exitDy=0;endArrow=none;endFill=0;" parent="1" source="d8uW3kwRBsjR4Sv8d3cF-35" target="vOKstgV0_YbRhc0kYzh2-1" edge="1">
          <mxGeometry relative="1" as="geometry" />
        </mxCell>
        <mxCell id="vOKstgV0_YbRhc0kYzh2-13" value="N" style="edgeLabel;html=1;align=center;verticalAlign=middle;resizable=0;points=[];fontFamily=Helvetica;fontSize=11;fontColor=default;labelBackgroundColor=default;" parent="vOKstgV0_YbRhc0kYzh2-2" vertex="1" connectable="0">
          <mxGeometry x="-0.961" relative="1" as="geometry">
            <mxPoint y="45" as="offset" />
          </mxGeometry>
        </mxCell>
        <mxCell id="d8uW3kwRBsjR4Sv8d3cF-35" value="Measurement" style="whiteSpace=wrap;html=1;align=center;fontFamily=Helvetica;fontSize=11;fontColor=default;labelBackgroundColor=default;" parent="1" vertex="1">
          <mxGeometry x="1420" y="1140" width="100" height="40" as="geometry" />
        </mxCell>
        <mxCell id="d8uW3kwRBsjR4Sv8d3cF-36" value="Device" style="whiteSpace=wrap;html=1;align=center;fontFamily=Helvetica;fontSize=11;fontColor=default;labelBackgroundColor=default;" parent="1" vertex="1">
          <mxGeometry x="1730" y="1080" width="100" height="40" as="geometry" />
        </mxCell>
        <mxCell id="vOKstgV0_YbRhc0kYzh2-8" style="edgeStyle=orthogonalEdgeStyle;rounded=0;orthogonalLoop=1;jettySize=auto;html=1;strokeColor=default;align=center;verticalAlign=middle;fontFamily=Helvetica;fontSize=11;fontColor=default;labelBackgroundColor=default;endArrow=none;endFill=0;" parent="1" source="d8uW3kwRBsjR4Sv8d3cF-37" target="vOKstgV0_YbRhc0kYzh2-4" edge="1">
          <mxGeometry relative="1" as="geometry" />
        </mxCell>
        <mxCell id="vOKstgV0_YbRhc0kYzh2-10" value="1" style="edgeLabel;html=1;align=center;verticalAlign=middle;resizable=0;points=[];fontFamily=Helvetica;fontSize=11;fontColor=default;labelBackgroundColor=default;" parent="vOKstgV0_YbRhc0kYzh2-8" vertex="1" connectable="0">
          <mxGeometry x="-0.909" relative="1" as="geometry">
            <mxPoint as="offset" />
          </mxGeometry>
        </mxCell>
        <mxCell id="d8uW3kwRBsjR4Sv8d3cF-37" value="FeatureOfInterest" style="whiteSpace=wrap;html=1;align=center;fontFamily=Helvetica;fontSize=11;fontColor=default;labelBackgroundColor=default;" parent="1" vertex="1">
          <mxGeometry x="1730" y="1190" width="100" height="40" as="geometry" />
        </mxCell>
        <mxCell id="d8uW3kwRBsjR4Sv8d3cF-38" value="Datastream" style="whiteSpace=wrap;html=1;align=center;fontFamily=Helvetica;fontSize=11;fontColor=default;labelBackgroundColor=default;" parent="1" vertex="1">
          <mxGeometry x="1730" y="1340" width="100" height="40" as="geometry" />
        </mxCell>
        <mxCell id="d8uW3kwRBsjR4Sv8d3cF-45" value="" style="edgeStyle=orthogonalEdgeStyle;rounded=0;orthogonalLoop=1;jettySize=auto;html=1;strokeColor=default;align=center;verticalAlign=middle;fontFamily=Helvetica;fontSize=11;fontColor=default;labelBackgroundColor=default;endArrow=none;endFill=0;" parent="1" source="d8uW3kwRBsjR4Sv8d3cF-39" target="d8uW3kwRBsjR4Sv8d3cF-36" edge="1">
          <mxGeometry relative="1" as="geometry" />
        </mxCell>
        <mxCell id="d8uW3kwRBsjR4Sv8d3cF-39" value="Created By" style="shape=rhombus;perimeter=rhombusPerimeter;whiteSpace=wrap;html=1;align=center;fontFamily=Helvetica;fontSize=11;fontColor=default;labelBackgroundColor=default;" parent="1" vertex="1">
          <mxGeometry x="1570" y="1070" width="120" height="60" as="geometry" />
        </mxCell>
        <mxCell id="d8uW3kwRBsjR4Sv8d3cF-46" value="" style="edgeStyle=orthogonalEdgeStyle;rounded=0;orthogonalLoop=1;jettySize=auto;html=1;strokeColor=default;align=center;verticalAlign=middle;fontFamily=Helvetica;fontSize=11;fontColor=default;labelBackgroundColor=default;endArrow=none;endFill=0;" parent="1" source="d8uW3kwRBsjR4Sv8d3cF-40" target="d8uW3kwRBsjR4Sv8d3cF-37" edge="1">
          <mxGeometry relative="1" as="geometry" />
        </mxCell>
        <mxCell id="d8uW3kwRBsjR4Sv8d3cF-40" value="Observes A" style="shape=rhombus;perimeter=rhombusPerimeter;whiteSpace=wrap;html=1;align=center;fontFamily=Helvetica;fontSize=11;fontColor=default;labelBackgroundColor=default;" parent="1" vertex="1">
          <mxGeometry x="1570" y="1180" width="120" height="60" as="geometry" />
        </mxCell>
        <mxCell id="d8uW3kwRBsjR4Sv8d3cF-52" style="edgeStyle=none;rounded=0;orthogonalLoop=1;jettySize=auto;html=1;strokeColor=default;align=center;verticalAlign=middle;fontFamily=Helvetica;fontSize=11;fontColor=default;labelBackgroundColor=default;endArrow=none;endFill=0;" parent="1" source="d8uW3kwRBsjR4Sv8d3cF-47" target="d8uW3kwRBsjR4Sv8d3cF-48" edge="1">
          <mxGeometry relative="1" as="geometry" />
        </mxCell>
        <mxCell id="d8uW3kwRBsjR4Sv8d3cF-53" style="edgeStyle=none;rounded=0;orthogonalLoop=1;jettySize=auto;html=1;strokeColor=default;align=center;verticalAlign=middle;fontFamily=Helvetica;fontSize=11;fontColor=default;labelBackgroundColor=default;endArrow=none;endFill=0;" parent="1" source="d8uW3kwRBsjR4Sv8d3cF-47" target="d8uW3kwRBsjR4Sv8d3cF-49" edge="1">
          <mxGeometry relative="1" as="geometry" />
        </mxCell>
        <mxCell id="d8uW3kwRBsjR4Sv8d3cF-47" value="Actor" style="shape=umlActor;verticalLabelPosition=bottom;verticalAlign=top;html=1;fontFamily=Helvetica;fontSize=11;fontColor=default;labelBackgroundColor=default;" parent="1" vertex="1">
          <mxGeometry x="223.75" y="95" width="30" height="60" as="geometry" />
        </mxCell>
        <mxCell id="d8uW3kwRBsjR4Sv8d3cF-51" style="rounded=0;orthogonalLoop=1;jettySize=auto;html=1;strokeColor=default;align=center;verticalAlign=middle;fontFamily=Helvetica;fontSize=11;fontColor=default;labelBackgroundColor=default;endArrow=block;endFill=1;" parent="1" source="d8uW3kwRBsjR4Sv8d3cF-48" target="d8uW3kwRBsjR4Sv8d3cF-50" edge="1">
          <mxGeometry relative="1" as="geometry" />
        </mxCell>
        <mxCell id="d8uW3kwRBsjR4Sv8d3cF-48" value="View Project Measurements" style="ellipse;whiteSpace=wrap;html=1;fontFamily=Helvetica;fontSize=11;fontColor=default;labelBackgroundColor=default;" parent="1" vertex="1">
          <mxGeometry x="483.75" y="90" width="140" height="70" as="geometry" />
        </mxCell>
        <mxCell id="d8uW3kwRBsjR4Sv8d3cF-49" value="View Device Measurements" style="ellipse;whiteSpace=wrap;html=1;fontFamily=Helvetica;fontSize=11;fontColor=default;labelBackgroundColor=default;" parent="1" vertex="1">
          <mxGeometry x="483.75" y="205" width="140" height="70" as="geometry" />
        </mxCell>
        <mxCell id="d8uW3kwRBsjR4Sv8d3cF-50" value="View FoI Measurements" style="ellipse;whiteSpace=wrap;html=1;fontFamily=Helvetica;fontSize=11;fontColor=default;labelBackgroundColor=default;" parent="1" vertex="1">
          <mxGeometry x="713.75" y="90" width="140" height="70" as="geometry" />
        </mxCell>
        <mxCell id="LYgUt3nxvcHPIj7D9Opx-18" style="rounded=0;orthogonalLoop=1;jettySize=auto;html=1;endArrow=none;endFill=0;" parent="1" source="d8uW3kwRBsjR4Sv8d3cF-90" target="LYgUt3nxvcHPIj7D9Opx-17" edge="1">
          <mxGeometry relative="1" as="geometry" />
        </mxCell>
        <mxCell id="LYgUt3nxvcHPIj7D9Opx-19" value="0..1&lt;div&gt;+ Datastream&lt;/div&gt;" style="edgeLabel;html=1;align=center;verticalAlign=middle;resizable=0;points=[];" parent="LYgUt3nxvcHPIj7D9Opx-18" vertex="1" connectable="0">
          <mxGeometry x="0.5129" y="-3" relative="1" as="geometry">
            <mxPoint x="-4" y="-30" as="offset" />
          </mxGeometry>
        </mxCell>
        <mxCell id="d8uW3kwRBsjR4Sv8d3cF-90" value="FeatureOfInterest" style="shape=table;startSize=30;container=1;collapsible=1;childLayout=tableLayout;fixedRows=1;rowLines=0;fontStyle=1;align=center;resizeLast=1;html=1;fontFamily=Helvetica;fontSize=11;fontColor=default;labelBackgroundColor=default;" parent="1" vertex="1">
          <mxGeometry x="130" y="1110" width="340" height="180" as="geometry" />
        </mxCell>
        <mxCell id="d8uW3kwRBsjR4Sv8d3cF-91" value="" style="shape=tableRow;horizontal=0;startSize=0;swimlaneHead=0;swimlaneBody=0;fillColor=none;collapsible=0;dropTarget=0;points=[[0,0.5],[1,0.5]];portConstraint=eastwest;top=0;left=0;right=0;bottom=1;fontFamily=Helvetica;fontSize=11;fontColor=default;labelBackgroundColor=default;" parent="d8uW3kwRBsjR4Sv8d3cF-90" vertex="1">
          <mxGeometry y="30" width="340" height="30" as="geometry" />
        </mxCell>
        <mxCell id="d8uW3kwRBsjR4Sv8d3cF-92" value="PK" style="shape=partialRectangle;connectable=0;fillColor=none;top=0;left=0;bottom=0;right=0;fontStyle=1;overflow=hidden;whiteSpace=wrap;html=1;fontFamily=Helvetica;fontSize=11;fontColor=default;labelBackgroundColor=default;" parent="d8uW3kwRBsjR4Sv8d3cF-91" vertex="1">
          <mxGeometry width="30" height="30" as="geometry">
            <mxRectangle width="30" height="30" as="alternateBounds" />
          </mxGeometry>
        </mxCell>
        <mxCell id="d8uW3kwRBsjR4Sv8d3cF-93" value="ID" style="shape=partialRectangle;connectable=0;fillColor=none;top=0;left=0;bottom=0;right=0;align=left;spacingLeft=6;fontStyle=5;overflow=hidden;whiteSpace=wrap;html=1;fontFamily=Helvetica;fontSize=11;fontColor=default;labelBackgroundColor=default;" parent="d8uW3kwRBsjR4Sv8d3cF-91" vertex="1">
          <mxGeometry x="30" width="310" height="30" as="geometry">
            <mxRectangle width="310" height="30" as="alternateBounds" />
          </mxGeometry>
        </mxCell>
        <mxCell id="d8uW3kwRBsjR4Sv8d3cF-94" value="" style="shape=tableRow;horizontal=0;startSize=0;swimlaneHead=0;swimlaneBody=0;fillColor=none;collapsible=0;dropTarget=0;points=[[0,0.5],[1,0.5]];portConstraint=eastwest;top=0;left=0;right=0;bottom=0;fontFamily=Helvetica;fontSize=11;fontColor=default;labelBackgroundColor=default;" parent="d8uW3kwRBsjR4Sv8d3cF-90" vertex="1">
          <mxGeometry y="60" width="340" height="30" as="geometry" />
        </mxCell>
        <mxCell id="d8uW3kwRBsjR4Sv8d3cF-95" value="" style="shape=partialRectangle;connectable=0;fillColor=none;top=0;left=0;bottom=0;right=0;editable=1;overflow=hidden;whiteSpace=wrap;html=1;fontFamily=Helvetica;fontSize=11;fontColor=default;labelBackgroundColor=default;" parent="d8uW3kwRBsjR4Sv8d3cF-94" vertex="1">
          <mxGeometry width="30" height="30" as="geometry">
            <mxRectangle width="30" height="30" as="alternateBounds" />
          </mxGeometry>
        </mxCell>
        <mxCell id="d8uW3kwRBsjR4Sv8d3cF-96" value="Name" style="shape=partialRectangle;connectable=0;fillColor=none;top=0;left=0;bottom=0;right=0;align=left;spacingLeft=6;overflow=hidden;whiteSpace=wrap;html=1;fontFamily=Helvetica;fontSize=11;fontColor=default;labelBackgroundColor=default;" parent="d8uW3kwRBsjR4Sv8d3cF-94" vertex="1">
          <mxGeometry x="30" width="310" height="30" as="geometry">
            <mxRectangle width="310" height="30" as="alternateBounds" />
          </mxGeometry>
        </mxCell>
        <mxCell id="d8uW3kwRBsjR4Sv8d3cF-97" value="" style="shape=tableRow;horizontal=0;startSize=0;swimlaneHead=0;swimlaneBody=0;fillColor=none;collapsible=0;dropTarget=0;points=[[0,0.5],[1,0.5]];portConstraint=eastwest;top=0;left=0;right=0;bottom=0;fontFamily=Helvetica;fontSize=11;fontColor=default;labelBackgroundColor=default;" parent="d8uW3kwRBsjR4Sv8d3cF-90" vertex="1">
          <mxGeometry y="90" width="340" height="30" as="geometry" />
        </mxCell>
        <mxCell id="d8uW3kwRBsjR4Sv8d3cF-98" value="" style="shape=partialRectangle;connectable=0;fillColor=none;top=0;left=0;bottom=0;right=0;editable=1;overflow=hidden;whiteSpace=wrap;html=1;fontFamily=Helvetica;fontSize=11;fontColor=default;labelBackgroundColor=default;" parent="d8uW3kwRBsjR4Sv8d3cF-97" vertex="1">
          <mxGeometry width="30" height="30" as="geometry">
            <mxRectangle width="30" height="30" as="alternateBounds" />
          </mxGeometry>
        </mxCell>
        <mxCell id="d8uW3kwRBsjR4Sv8d3cF-99" value="Description" style="shape=partialRectangle;connectable=0;fillColor=none;top=0;left=0;bottom=0;right=0;align=left;spacingLeft=6;overflow=hidden;whiteSpace=wrap;html=1;fontFamily=Helvetica;fontSize=11;fontColor=default;labelBackgroundColor=default;" parent="d8uW3kwRBsjR4Sv8d3cF-97" vertex="1">
          <mxGeometry x="30" width="310" height="30" as="geometry">
            <mxRectangle width="310" height="30" as="alternateBounds" />
          </mxGeometry>
        </mxCell>
        <mxCell id="d8uW3kwRBsjR4Sv8d3cF-100" value="" style="shape=tableRow;horizontal=0;startSize=0;swimlaneHead=0;swimlaneBody=0;fillColor=none;collapsible=0;dropTarget=0;points=[[0,0.5],[1,0.5]];portConstraint=eastwest;top=0;left=0;right=0;bottom=0;fontFamily=Helvetica;fontSize=11;fontColor=default;labelBackgroundColor=default;" parent="d8uW3kwRBsjR4Sv8d3cF-90" vertex="1">
          <mxGeometry y="120" width="340" height="30" as="geometry" />
        </mxCell>
        <mxCell id="d8uW3kwRBsjR4Sv8d3cF-101" value="" style="shape=partialRectangle;connectable=0;fillColor=none;top=0;left=0;bottom=0;right=0;editable=1;overflow=hidden;whiteSpace=wrap;html=1;fontFamily=Helvetica;fontSize=11;fontColor=default;labelBackgroundColor=default;" parent="d8uW3kwRBsjR4Sv8d3cF-100" vertex="1">
          <mxGeometry width="30" height="30" as="geometry">
            <mxRectangle width="30" height="30" as="alternateBounds" />
          </mxGeometry>
        </mxCell>
        <mxCell id="d8uW3kwRBsjR4Sv8d3cF-102" value="Properties" style="shape=partialRectangle;connectable=0;fillColor=none;top=0;left=0;bottom=0;right=0;align=left;spacingLeft=6;overflow=hidden;whiteSpace=wrap;html=1;fontFamily=Helvetica;fontSize=11;fontColor=default;labelBackgroundColor=default;" parent="d8uW3kwRBsjR4Sv8d3cF-100" vertex="1">
          <mxGeometry x="30" width="310" height="30" as="geometry">
            <mxRectangle width="310" height="30" as="alternateBounds" />
          </mxGeometry>
        </mxCell>
        <mxCell id="d8uW3kwRBsjR4Sv8d3cF-166" value="" style="shape=tableRow;horizontal=0;startSize=0;swimlaneHead=0;swimlaneBody=0;fillColor=none;collapsible=0;dropTarget=0;points=[[0,0.5],[1,0.5]];portConstraint=eastwest;top=0;left=0;right=0;bottom=0;fontFamily=Helvetica;fontSize=11;fontColor=default;labelBackgroundColor=default;" parent="d8uW3kwRBsjR4Sv8d3cF-90" vertex="1">
          <mxGeometry y="150" width="340" height="30" as="geometry" />
        </mxCell>
        <mxCell id="d8uW3kwRBsjR4Sv8d3cF-167" value="" style="shape=partialRectangle;connectable=0;fillColor=none;top=0;left=0;bottom=0;right=0;editable=1;overflow=hidden;whiteSpace=wrap;html=1;fontFamily=Helvetica;fontSize=11;fontColor=default;labelBackgroundColor=default;" parent="d8uW3kwRBsjR4Sv8d3cF-166" vertex="1">
          <mxGeometry width="30" height="30" as="geometry">
            <mxRectangle width="30" height="30" as="alternateBounds" />
          </mxGeometry>
        </mxCell>
        <mxCell id="d8uW3kwRBsjR4Sv8d3cF-168" value="TenantID" style="shape=partialRectangle;connectable=0;fillColor=none;top=0;left=0;bottom=0;right=0;align=left;spacingLeft=6;overflow=hidden;whiteSpace=wrap;html=1;fontFamily=Helvetica;fontSize=11;fontColor=default;labelBackgroundColor=default;" parent="d8uW3kwRBsjR4Sv8d3cF-166" vertex="1">
          <mxGeometry x="30" width="310" height="30" as="geometry">
            <mxRectangle width="310" height="30" as="alternateBounds" />
          </mxGeometry>
        </mxCell>
        <mxCell id="d8uW3kwRBsjR4Sv8d3cF-154" style="edgeStyle=none;rounded=0;orthogonalLoop=1;jettySize=auto;html=1;strokeColor=default;align=center;verticalAlign=middle;fontFamily=Helvetica;fontSize=11;fontColor=default;labelBackgroundColor=default;endArrow=none;endFill=0;" parent="1" source="LYgUt3nxvcHPIj7D9Opx-1" target="d8uW3kwRBsjR4Sv8d3cF-90" edge="1">
          <mxGeometry relative="1" as="geometry">
            <mxPoint x="298.98936170212755" y="1390.0000000000005" as="sourcePoint" />
          </mxGeometry>
        </mxCell>
        <mxCell id="LYgUt3nxvcHPIj7D9Opx-20" value="0..*&lt;div&gt;+ History&lt;/div&gt;" style="edgeLabel;html=1;align=center;verticalAlign=middle;resizable=0;points=[];" parent="d8uW3kwRBsjR4Sv8d3cF-154" vertex="1" connectable="0">
          <mxGeometry x="-0.4737" y="1" relative="1" as="geometry">
            <mxPoint x="9" y="23" as="offset" />
          </mxGeometry>
        </mxCell>
        <mxCell id="vOKstgV0_YbRhc0kYzh2-3" value="" style="edgeStyle=orthogonalEdgeStyle;rounded=0;orthogonalLoop=1;jettySize=auto;html=1;strokeColor=default;align=center;verticalAlign=middle;fontFamily=Helvetica;fontSize=11;fontColor=default;labelBackgroundColor=default;endArrow=none;endFill=0;" parent="1" source="vOKstgV0_YbRhc0kYzh2-1" target="d8uW3kwRBsjR4Sv8d3cF-38" edge="1">
          <mxGeometry relative="1" as="geometry" />
        </mxCell>
        <mxCell id="vOKstgV0_YbRhc0kYzh2-12" value="1" style="edgeLabel;html=1;align=center;verticalAlign=middle;resizable=0;points=[];fontFamily=Helvetica;fontSize=11;fontColor=default;labelBackgroundColor=default;" parent="vOKstgV0_YbRhc0kYzh2-3" vertex="1" connectable="0">
          <mxGeometry x="0.5477" relative="1" as="geometry">
            <mxPoint as="offset" />
          </mxGeometry>
        </mxCell>
        <mxCell id="vOKstgV0_YbRhc0kYzh2-1" value="Belongs to a" style="shape=rhombus;perimeter=rhombusPerimeter;whiteSpace=wrap;html=1;align=center;fontFamily=Helvetica;fontSize=11;fontColor=default;labelBackgroundColor=default;" parent="1" vertex="1">
          <mxGeometry x="1570" y="1330" width="120" height="60" as="geometry" />
        </mxCell>
        <mxCell id="vOKstgV0_YbRhc0kYzh2-9" style="edgeStyle=orthogonalEdgeStyle;rounded=0;orthogonalLoop=1;jettySize=auto;html=1;strokeColor=default;align=center;verticalAlign=middle;fontFamily=Helvetica;fontSize=11;fontColor=default;labelBackgroundColor=default;endArrow=none;endFill=0;" parent="1" source="vOKstgV0_YbRhc0kYzh2-4" target="d8uW3kwRBsjR4Sv8d3cF-38" edge="1">
          <mxGeometry relative="1" as="geometry" />
        </mxCell>
        <mxCell id="vOKstgV0_YbRhc0kYzh2-11" value="N" style="edgeLabel;html=1;align=center;verticalAlign=middle;resizable=0;points=[];fontFamily=Helvetica;fontSize=11;fontColor=default;labelBackgroundColor=default;" parent="vOKstgV0_YbRhc0kYzh2-9" vertex="1" connectable="0">
          <mxGeometry x="0.7107" relative="1" as="geometry">
            <mxPoint as="offset" />
          </mxGeometry>
        </mxCell>
        <mxCell id="vOKstgV0_YbRhc0kYzh2-4" value="About a" style="shape=rhombus;perimeter=rhombusPerimeter;whiteSpace=wrap;html=1;align=center;fontFamily=Helvetica;fontSize=11;fontColor=default;labelBackgroundColor=default;" parent="1" vertex="1">
          <mxGeometry x="1860" y="1330" width="120" height="60" as="geometry" />
        </mxCell>
        <mxCell id="LYgUt3nxvcHPIj7D9Opx-1" value="FeatureOfInterestDatastreamBindings" style="shape=table;startSize=30;container=1;collapsible=1;childLayout=tableLayout;fixedRows=1;rowLines=0;fontStyle=1;align=center;resizeLast=1;html=1;fontFamily=Helvetica;fontSize=11;fontColor=default;labelBackgroundColor=default;" parent="1" vertex="1">
          <mxGeometry x="620" y="1200" width="340" height="90" as="geometry" />
        </mxCell>
        <mxCell id="LYgUt3nxvcHPIj7D9Opx-5" value="" style="shape=tableRow;horizontal=0;startSize=0;swimlaneHead=0;swimlaneBody=0;fillColor=none;collapsible=0;dropTarget=0;points=[[0,0.5],[1,0.5]];portConstraint=eastwest;top=0;left=0;right=0;bottom=0;fontFamily=Helvetica;fontSize=11;fontColor=default;labelBackgroundColor=default;" parent="LYgUt3nxvcHPIj7D9Opx-1" vertex="1">
          <mxGeometry y="30" width="340" height="30" as="geometry" />
        </mxCell>
        <mxCell id="LYgUt3nxvcHPIj7D9Opx-6" value="" style="shape=partialRectangle;connectable=0;fillColor=none;top=0;left=0;bottom=0;right=0;editable=1;overflow=hidden;whiteSpace=wrap;html=1;fontFamily=Helvetica;fontSize=11;fontColor=default;labelBackgroundColor=default;" parent="LYgUt3nxvcHPIj7D9Opx-5" vertex="1">
          <mxGeometry width="30" height="30" as="geometry">
            <mxRectangle width="30" height="30" as="alternateBounds" />
          </mxGeometry>
        </mxCell>
        <mxCell id="LYgUt3nxvcHPIj7D9Opx-7" value="BoundAt" style="shape=partialRectangle;connectable=0;fillColor=none;top=0;left=0;bottom=0;right=0;align=left;spacingLeft=6;overflow=hidden;whiteSpace=wrap;html=1;fontFamily=Helvetica;fontSize=11;fontColor=default;labelBackgroundColor=default;" parent="LYgUt3nxvcHPIj7D9Opx-5" vertex="1">
          <mxGeometry x="30" width="310" height="30" as="geometry">
            <mxRectangle width="310" height="30" as="alternateBounds" />
          </mxGeometry>
        </mxCell>
        <mxCell id="LYgUt3nxvcHPIj7D9Opx-8" value="" style="shape=tableRow;horizontal=0;startSize=0;swimlaneHead=0;swimlaneBody=0;fillColor=none;collapsible=0;dropTarget=0;points=[[0,0.5],[1,0.5]];portConstraint=eastwest;top=0;left=0;right=0;bottom=0;fontFamily=Helvetica;fontSize=11;fontColor=default;labelBackgroundColor=default;" parent="LYgUt3nxvcHPIj7D9Opx-1" vertex="1">
          <mxGeometry y="60" width="340" height="30" as="geometry" />
        </mxCell>
        <mxCell id="LYgUt3nxvcHPIj7D9Opx-9" value="" style="shape=partialRectangle;connectable=0;fillColor=none;top=0;left=0;bottom=0;right=0;editable=1;overflow=hidden;whiteSpace=wrap;html=1;fontFamily=Helvetica;fontSize=11;fontColor=default;labelBackgroundColor=default;" parent="LYgUt3nxvcHPIj7D9Opx-8" vertex="1">
          <mxGeometry width="30" height="30" as="geometry">
            <mxRectangle width="30" height="30" as="alternateBounds" />
          </mxGeometry>
        </mxCell>
        <mxCell id="LYgUt3nxvcHPIj7D9Opx-10" value="UnboundAt" style="shape=partialRectangle;connectable=0;fillColor=none;top=0;left=0;bottom=0;right=0;align=left;spacingLeft=6;overflow=hidden;whiteSpace=wrap;html=1;fontFamily=Helvetica;fontSize=11;fontColor=default;labelBackgroundColor=default;" parent="LYgUt3nxvcHPIj7D9Opx-8" vertex="1">
          <mxGeometry x="30" width="310" height="30" as="geometry">
            <mxRectangle width="310" height="30" as="alternateBounds" />
          </mxGeometry>
        </mxCell>
        <mxCell id="LYgUt3nxvcHPIj7D9Opx-17" value="Datastream" style="html=1;whiteSpace=wrap;" parent="1" vertex="1">
          <mxGeometry x="620" y="1110" width="340" height="50" as="geometry" />
        </mxCell>
        <mxCell id="ADEAatp76KYXMYbJpZsr-1" value="Datastream" style="whiteSpace=wrap;html=1;align=center;" vertex="1" parent="1">
          <mxGeometry x="1910" y="87.5" width="100" height="40" as="geometry" />
        </mxCell>
        <mxCell id="ADEAatp76KYXMYbJpZsr-2" value="Datastream" style="whiteSpace=wrap;html=1;align=center;" vertex="1" parent="1">
          <mxGeometry x="1910" y="182.5" width="100" height="40" as="geometry" />
        </mxCell>
        <mxCell id="ADEAatp76KYXMYbJpZsr-6" style="rounded=0;orthogonalLoop=1;jettySize=auto;html=1;" edge="1" target="ADEAatp76KYXMYbJpZsr-8" parent="1">
          <mxGeometry relative="1" as="geometry">
            <mxPoint x="1860" y="339" as="sourcePoint" />
          </mxGeometry>
        </mxCell>
        <mxCell id="ADEAatp76KYXMYbJpZsr-7" style="edgeStyle=none;rounded=0;orthogonalLoop=1;jettySize=auto;html=1;strokeColor=default;align=center;verticalAlign=middle;fontFamily=Helvetica;fontSize=11;fontColor=default;labelBackgroundColor=default;endArrow=classic;" edge="1" target="ADEAatp76KYXMYbJpZsr-9" parent="1">
          <mxGeometry relative="1" as="geometry">
            <mxPoint x="1860" y="371" as="sourcePoint" />
          </mxGeometry>
        </mxCell>
        <mxCell id="ADEAatp76KYXMYbJpZsr-8" value="Datastream" style="whiteSpace=wrap;html=1;align=center;" vertex="1" parent="1">
          <mxGeometry x="1910" y="287.5" width="100" height="40" as="geometry" />
        </mxCell>
        <mxCell id="ADEAatp76KYXMYbJpZsr-9" value="Datastream" style="whiteSpace=wrap;html=1;align=center;" vertex="1" parent="1">
          <mxGeometry x="1910" y="382.5" width="100" height="40" as="geometry" />
        </mxCell>
      </root>
    </mxGraphModel>
  </diagram>
  <diagram id="AiTU5K1kqcV-EuxyHumK" name="Class">
    <mxGraphModel dx="1719" dy="662" grid="1" gridSize="10" guides="1" tooltips="1" connect="1" arrows="1" fold="1" page="1" pageScale="1" pageWidth="1169" pageHeight="827" math="0" shadow="0">
      <root>
        <mxCell id="0" />
        <mxCell id="1" parent="0" />
        <mxCell id="IBB_S17_S3tH0W_TQopu-1" value="FeaturesOfInterest" style="html=1;whiteSpace=wrap;" vertex="1" parent="1">
          <mxGeometry x="720" y="160" width="110" height="50" as="geometry" />
        </mxCell>
        <mxCell id="IBB_S17_S3tH0W_TQopu-3" style="edgeStyle=orthogonalEdgeStyle;rounded=0;orthogonalLoop=1;jettySize=auto;html=1;" edge="1" parent="1" source="IBB_S17_S3tH0W_TQopu-2" target="IBB_S17_S3tH0W_TQopu-1">
          <mxGeometry relative="1" as="geometry" />
        </mxCell>
        <mxCell id="IBB_S17_S3tH0W_TQopu-2" value="Devices" style="html=1;whiteSpace=wrap;" vertex="1" parent="1">
          <mxGeometry x="410" y="160" width="110" height="50" as="geometry" />
        </mxCell>
        <mxCell id="IBB_S17_S3tH0W_TQopu-5" style="edgeStyle=orthogonalEdgeStyle;rounded=0;orthogonalLoop=1;jettySize=auto;html=1;" edge="1" parent="1" source="IBB_S17_S3tH0W_TQopu-4" target="IBB_S17_S3tH0W_TQopu-1">
          <mxGeometry relative="1" as="geometry" />
        </mxCell>
        <mxCell id="IBB_S17_S3tH0W_TQopu-4" value="Measurements" style="html=1;whiteSpace=wrap;" vertex="1" parent="1">
          <mxGeometry x="410" y="270" width="110" height="50" as="geometry" />
        </mxCell>
      </root>
    </mxGraphModel>
  </diagram>
</mxfile>
